<mxfile host="Electron" compressed="false" modified="2022-02-19T15:28:00.071Z" agent="5.0 (Windows NT 10.0; Win64; x64) AppleWebKit/537.36 (KHTML, like Gecko) draw.io/16.5.1 Chrome/96.0.4664.110 Electron/16.0.7 Safari/537.36" etag="yzMiltsLsX6bzHf0a6_w" version="16.5.1" type="device">
  <diagram id="ETWsS70P1tHz5V-jA7J0" name="Page-1">
    <mxGraphModel dx="1102" dy="875" grid="1" gridSize="10" guides="1" tooltips="1" connect="1" arrows="1" fold="1" page="1" pageScale="1" pageWidth="827" pageHeight="1169" math="0" shadow="0">
      <root>
        <mxCell id="0" />
        <mxCell id="1" parent="0" />
        <mxCell id="qZ7mvPWVtpQdx_aLzNMV-39" style="edgeStyle=orthogonalEdgeStyle;rounded=0;orthogonalLoop=1;jettySize=auto;html=1;exitX=1;exitY=0.5;exitDx=0;exitDy=0;exitPerimeter=0;entryX=0;entryY=0.5;entryDx=0;entryDy=0;fontColor=#FFFFFF;startArrow=none;startFill=0;" parent="1" source="qZ7mvPWVtpQdx_aLzNMV-26" target="qZ7mvPWVtpQdx_aLzNMV-36" edge="1">
          <mxGeometry relative="1" as="geometry">
            <Array as="points">
              <mxPoint x="420" y="165" />
              <mxPoint x="420" y="220" />
            </Array>
          </mxGeometry>
        </mxCell>
        <mxCell id="qZ7mvPWVtpQdx_aLzNMV-26" value="CUSTOM GIT" style="verticalLabelPosition=bottom;html=1;verticalAlign=top;align=center;strokeColor=none;fillColor=#53B4FF;shape=mxgraph.azure.git_repository;" parent="1" vertex="1">
          <mxGeometry x="340" y="140" width="50" height="50" as="geometry" />
        </mxCell>
        <mxCell id="qZ7mvPWVtpQdx_aLzNMV-35" value="BGEPR running application" style="rounded=0;whiteSpace=wrap;html=1;fillColor=#0000FF;fontColor=#FFFFFF;fontStyle=1" parent="1" vertex="1">
          <mxGeometry x="450" y="170" width="100" height="40" as="geometry" />
        </mxCell>
        <mxCell id="qZ7mvPWVtpQdx_aLzNMV-40" style="edgeStyle=orthogonalEdgeStyle;rounded=0;orthogonalLoop=1;jettySize=auto;html=1;exitX=1;exitY=0.5;exitDx=0;exitDy=0;fontColor=#FFFFFF;startArrow=none;startFill=0;entryX=1;entryY=0.5;entryDx=0;entryDy=0;" parent="1" source="qZ7mvPWVtpQdx_aLzNMV-36" target="qZ7mvPWVtpQdx_aLzNMV-38" edge="1">
          <mxGeometry relative="1" as="geometry">
            <mxPoint x="570" y="250" as="targetPoint" />
            <Array as="points">
              <mxPoint x="600" y="220" />
              <mxPoint x="600" y="240" />
            </Array>
          </mxGeometry>
        </mxCell>
        <mxCell id="qZ7mvPWVtpQdx_aLzNMV-36" value="&amp;nbsp; custom" style="rounded=0;whiteSpace=wrap;html=1;fillColor=#53B4FF;fontColor=#000000;align=left;" parent="1" vertex="1">
          <mxGeometry x="450" y="210" width="100" height="20" as="geometry" />
        </mxCell>
        <mxCell id="qZ7mvPWVtpQdx_aLzNMV-38" value="&amp;nbsp; lib" style="rounded=0;whiteSpace=wrap;html=1;fillColor=#0000FF;fontColor=#FFFFFF;align=left;" parent="1" vertex="1">
          <mxGeometry x="450" y="230" width="100" height="20" as="geometry" />
        </mxCell>
        <mxCell id="qZ7mvPWVtpQdx_aLzNMV-41" value="lib/app/custom.jar" style="text;html=1;resizable=0;autosize=1;align=center;verticalAlign=middle;points=[];fillColor=none;strokeColor=none;rounded=0;fontColor=#000000;fontStyle=1" parent="1" vertex="1">
          <mxGeometry x="595" y="220" width="120" height="20" as="geometry" />
        </mxCell>
        <mxCell id="SnS5S7NtkSD54oG2H7kG-25" value="bgerp.org&lt;br&gt;" style="points=[[0,0],[0.25,0],[0.5,0],[0.75,0],[1,0],[1,0.25],[1,0.5],[1,0.75],[1,1],[0.75,1],[0.5,1],[0.25,1],[0,1],[0,0.75],[0,0.5],[0,0.25]];outlineConnect=0;gradientColor=none;html=1;whiteSpace=wrap;fontSize=12;fontStyle=0;container=1;pointerEvents=0;collapsible=0;recursiveResize=0;shape=mxgraph.aws4.group;grIcon=mxgraph.aws4.group_on_premise;strokeColor=#5A6C86;fillColor=none;verticalAlign=top;align=left;spacingLeft=30;fontColor=#5A6C86;dashed=0;" vertex="1" parent="1">
          <mxGeometry x="435" y="50" width="130" height="80" as="geometry" />
        </mxCell>
        <mxCell id="SnS5S7NtkSD54oG2H7kG-27" value="BGERP APP &lt;br&gt;and libs" style="rounded=0;whiteSpace=wrap;html=1;fillColor=#0000FF;fontColor=#FFFFFF;align=left;" vertex="1" parent="SnS5S7NtkSD54oG2H7kG-25">
          <mxGeometry x="10" y="37.5" width="110" height="35" as="geometry" />
        </mxCell>
        <mxCell id="SnS5S7NtkSD54oG2H7kG-26" style="edgeStyle=orthogonalEdgeStyle;rounded=0;orthogonalLoop=1;jettySize=auto;html=1;exitX=0.5;exitY=1;exitDx=0;exitDy=0;" edge="1" parent="1" source="SnS5S7NtkSD54oG2H7kG-25" target="SnS5S7NtkSD54oG2H7kG-25">
          <mxGeometry relative="1" as="geometry" />
        </mxCell>
        <mxCell id="SnS5S7NtkSD54oG2H7kG-28" style="edgeStyle=orthogonalEdgeStyle;rounded=0;orthogonalLoop=1;jettySize=auto;html=1;exitX=0.5;exitY=1;exitDx=0;exitDy=0;entryX=0.5;entryY=0;entryDx=0;entryDy=0;" edge="1" parent="1" source="SnS5S7NtkSD54oG2H7kG-27" target="qZ7mvPWVtpQdx_aLzNMV-35">
          <mxGeometry relative="1" as="geometry">
            <Array as="points">
              <mxPoint x="500" y="130" />
              <mxPoint x="500" y="130" />
            </Array>
          </mxGeometry>
        </mxCell>
      </root>
    </mxGraphModel>
  </diagram>
</mxfile>
